PLOT:


Kevin Carson (Bow Wow), a young man living in the projects, dreams of having his life changed by winning the lottery -- as do all his neighbors -- but when Kevin finally hits it big, he must keep his good luck secret until he can claim the prize. Thrilled to be in possession of the $370 million ticket, Kevin endeavors to keep his scheming and sometimes hostile neighbors at bay in this uproarious comedy co-starring Ice Cube.



INFO:

Video
ID : 1
Format : AVC
Format/Info : Advanced Video Codec
Format profile : Main@L3.0
Format settings, CABAC : Yes
Format settings, ReFrames : 2 frames
Codec ID : avc1
Codec ID/Info : Advanced Video Coding
Duration : 1h 39mn
Bit rate mode : Variable
Bit rate : 825 Kbps
Width : 720 pixels
Height : 356 pixels
Display aspect ratio : 2.35:1
Frame rate mode : Variable
Frame rate : 23.976 fps
Minimum frame rate : 14.985 fps
Maximum frame rate : 90.909 fps
Color space : YUV
Chroma subsampling : 4:2:0
Bit depth : 8 bits
Scan type : Progressive
Bits/(Pixel*Frame) : 0.134
Stream size : 581 MiB (83%)
Writing library : x264 core 79

Audio
ID : 2
Format : AAC
Format/Info : Advanced Audio Codec
Format version : Version 4
Format profile : LC
Format settings, SBR : No
Codec ID : 40
Duration : 1h 39mn
Bit rate mode : Variable
Bit rate : 160 Kbps
Maximum bit rate : 219 Kbps
Channel(s) : 2 channels
Channel positions : Front: L R
Sampling rate : 48.0 KHz
Stream size : 113 MiB (16%)
Language : English







================================== 
http://thepiratebay.org/user/hiest
==================================








Screens:
 
http://www.postimg.com/image/24000/23291.jpg
 
http://www.postimg.com/image/24000/23292.jpg

